P3
51 55
255
252 25 63 252 25 63 252 25 63 252 25 63 252 25 63 252 25 63 252 25 63 252 25 63 79 79 79 78 78 78 78 78 78 79 79 79 252 25 63 252 25 63 252 25 63 252 25 63 252 25 63 252 25 63 88 88 88 83 83 83 78 78 78 74 74 74 71 71 71 67 67 67 65 65 65 65 65 65 65 65 65 72 72 72 75 75 75 81 81 81 81 81 81 81 81 81 77 77 77 71 71 71 65 65 65 61 61 61 59 59 59 61 61 61 61 61 61 68 68 68 70 70 70 73 73 73 75 75 75 80 80 80 252 25 63 252 25 63 252 25 63 252 25 63 252 25 63 252 25 63 252 25 63 
252 25 63 252 25 63 92 92 92 88 88 88 85 85 85 83 83 83 81 81 81 80 80 80 252 25 63 252 25 63 252 25 63 252 25 63 88 88 88 92 92 92 97 97 97 100 100 100 101 101 101 98 98 98 252 25 63 89 89 89 84 84 84 81 81 81 78 78 78 76 76 76 76 76 76 78 78 78 252 25 63 252 25 63 252 25 63 252 25 63 252 25 63 252 25 63 252 25 63 252 25 63 252 25 63 252 25 63 252 25 63 252 25 63 252 25 63 252 25 63 252 25 63 252 25 63 252 25 63 252 25 63 90 90 90 99 99 99 118 118 118 149 149 149 252 25 63 202 202 202 216 216 216 
252 25 63 94 94 94 90 90 90 87 87 87 83 83 83 81 81 81 80 80 80 79 79 79 80 80 80 81 81 81 84 84 84 88 88 88 92 92 92 96 96 96 100 100 100 102 102 102 102 102 102 99 99 99 96 96 96 252 25 63 252 25 63 252 25 63 252 25 63 252 25 63 252 25 63 252 25 63 100 100 100 106 106 106 118 118 118 116 116 116 115 115 115 108 108 108 102 102 102 97 97 97 93 93 93 89 89 89 90 90 90 101 101 101 115 115 115 113 113 113 110 110 110 104 104 104 101 101 101 100 100 100 101 101 101 110 110 110 125 125 125 252 25 63 186 186 186 210 210 210 225 225 225 
252 25 63 95 95 95 91 91 91 88 88 88 86 86 86 83 83 83 81 81 81 80 80 80 80 80 80 82 82 82 85 85 85 88 88 88 92 92 92 95 95 95 98 98 98 99 99 99 98 98 98 97 97 97 95 95 95 252 25 63 252 25 63 252 25 63 252 25 63 252 25 63 252 25 63 90 90 90 96 96 96 104 104 104 111 111 111 115 115 115 116 116 116 114 114 114 110 110 110 107 107 107 105 105 105 103 103 103 104 104 104 112 112 112 121 121 121 122 122 122 120 120 120 117 117 117 116 116 116 117 117 117 122 122 122 132 132 132 252 25 63 173 173 173 199 199 199 221 221 221 236 236 236 
252 25 63 252 25 63 252 25 63 252 25 63 252 25 63 87 87 87 84 84 84 82 82 82 81 81 81 82 82 82 84 84 84 87 87 87 90 90 90 93 93 93 95 95 95 252 25 63 252 25 63 252 25 63 252 25 63 101 101 101 105 105 105 108 108 108 107 107 107 103 103 103 94 94 94 96 96 96 94 94 94 102 102 102 103 103 103 112 112 112 114 114 114 116 116 116 116 116 116 114 114 114 113 113 113 111 111 111 112 112 112 116 116 116 120 120 120 123 123 123 123 123 123 126 126 126 130 130 130 252 25 63 252 25 63 252 25 63 172 172 172 190 190 190 213 213 213 230 230 230 245 245 245 
252 25 63 252 25 63 252 25 63 252 25 63 98 98 98 252 25 63 88 88 88 85 85 85 83 83 83 83 83 83 84 84 84 87 87 87 89 89 89 252 25 63 252 25 63 252 25 63 99 99 99 101 101 101 106 106 106 114 114 114 123 123 123 129 129 129 131 131 131 128 128 128 123 123 123 121 121 121 120 120 120 120 120 120 119 119 119 119 119 119 118 118 118 119 119 119 118 118 118 118 118 118 116 116 116 115 115 115 114 114 114 116 116 116 119 119 119 122 122 122 126 126 126 132 132 132 252 25 63 149 149 149 160 160 160 171 171 171 184 184 184 199 199 199 216 216 216 231 231 231 241 241 241 
252 25 63 252 25 63 252 25 63 110 110 110 252 25 63 98 98 98 252 25 63 88 88 88 85 85 85 84 84 84 85 85 85 87 87 87 252 25 63 252 25 63 252 25 63 102 102 102 107 107 107 112 112 112 119 119 119 131 131 131 143 143 143 152 152 152 157 157 157 155 155 155 154 154 154 150 150 150 150 150 150 142 142 142 138 138 138 130 130 130 124 124 124 122 122 122 120 120 120 119 119 119 117 117 117 115 115 115 113 113 113 114 114 114 117 117 117 120 120 120 127 127 127 252 25 63 149 149 149 161 161 161 172 172 172 182 182 182 191 191 191 203 203 203 214 214 214 227 227 227 235 235 235 
252 25 63 121 121 121 120 120 120 252 25 63 108 108 108 252 25 63 95 95 95 252 25 63 87 87 87 87 87 87 87 87 87 252 25 63 252 25 63 252 25 63 103 103 103 110 110 110 117 117 117 125 125 125 135 135 135 147 147 147 159 159 159 168 168 168 173 173 173 172 172 172 169 169 169 165 165 165 160 160 160 252 25 63 252 25 63 136 136 136 130 130 130 126 126 126 123 123 123 120 120 120 117 117 117 114 114 114 112 112 112 111 111 111 113 113 113 118 118 118 252 25 63 142 142 142 158 158 158 172 172 172 183 183 183 192 192 192 200 200 200 207 207 207 214 214 214 222 222 222 229 229 229 
252 25 63 252 25 63 252 25 63 252 25 63 252 25 63 252 25 63 252 25 63 92 92 92 252 25 63 252 25 63 252 25 63 252 25 63 252 25 63 103 103 103 110 110 110 119 119 119 129 129 129 139 139 139 150 150 150 161 161 161 171 171 171 178 178 178 182 182 182 179 179 179 174 174 174 252 25 63 252 25 63 152 152 152 144 144 144 252 25 63 252 25 63 252 25 63 252 25 63 121 121 121 118 118 118 115 115 115 113 113 113 112 112 112 113 113 113 252 25 63 128 128 128 147 147 147 168 168 168 182 182 182 193 193 193 201 201 201 207 207 207 211 211 211 214 214 214 220 220 220 225 225 225 
252 25 63 252 25 63 252 25 63 252 25 63 105 105 105 100 100 100 252 25 63 252 25 63 252 25 63 252 25 63 252 25 63 252 25 63 103 103 103 110 110 110 119 119 119 129 129 129 140 140 140 151 151 151 162 162 162 171 171 171 178 178 178 182 182 182 183 183 183 180 180 180 252 25 63 165 165 165 156 156 156 146 146 146 137 137 137 132 132 132 129 129 129 125 125 125 123 123 123 252 25 63 252 25 63 252 25 63 252 25 63 252 25 63 252 25 63 125 125 125 136 136 136 156 156 156 176 176 176 190 190 190 199 199 199 206 206 206 211 211 211 215 215 215 217 217 217 221 221 221 223 223 223 
252 25 63 252 25 63 252 25 63 105 105 105 101 101 101 98 98 98 97 97 97 252 25 63 252 25 63 252 25 63 252 25 63 104 104 104 110 110 110 118 118 118 127 127 127 138 138 138 149 149 149 160 160 160 170 170 170 176 176 176 180 180 180 182 182 182 182 182 182 252 25 63 170 170 170 162 162 162 151 151 151 141 141 141 131 131 131 129 129 129 127 127 127 125 125 125 124 124 124 127 127 127 130 130 130 134 134 134 136 136 136 137 137 137 136 136 136 143 143 143 151 151 151 169 169 169 186 186 186 196 196 196 202 202 202 209 209 209 214 214 214 217 217 217 220 220 220 222 222 222 223 223 223 
252 25 63 252 25 63 105 105 105 101 101 101 98 98 98 97 97 97 97 97 97 98 98 98 252 25 63 252 25 63 107 107 107 112 112 112 118 118 118 126 126 126 135 135 135 143 143 143 153 153 153 161 161 161 170 170 170 176 176 176 180 180 180 182 182 182 252 25 63 175 175 175 169 169 169 161 161 161 152 152 152 142 142 142 135 135 135 131 131 131 131 131 131 132 132 132 135 135 135 142 142 142 150 150 150 159 159 159 166 166 166 170 170 170 173 173 173 177 177 177 182 182 182 188 188 188 195 195 195 201 201 201 206 206 206 210 210 210 215 215 215 218 218 218 220 220 220 221 221 221 221 221 221 
252 25 63 106 106 106 103 103 103 100 100 100 98 98 98 98 98 98 99 99 99 252 25 63 252 25 63 109 109 109 114 114 114 120 120 120 126 126 126 132 132 132 139 139 139 145 145 145 153 153 153 252 25 63 252 25 63 252 25 63 252 25 63 252 25 63 179 179 179 174 174 174 168 168 168 161 161 161 155 155 155 146 146 146 141 141 141 139 139 139 142 142 142 252 25 63 252 25 63 252 25 63 252 25 63 252 25 63 252 25 63 252 25 63 252 25 63 252 25 63 252 25 63 206 206 206 203 203 203 205 205 205 208 208 208 211 211 211 213 213 213 215 215 215 216 216 216 216 216 216 216 216 216 
252 25 63 252 25 63 252 25 63 252 25 63 252 25 63 252 25 63 252 25 63 252 25 63 111 111 111 117 117 117 123 123 123 129 129 129 133 133 133 135 135 135 138 138 138 144 144 144 252 25 63 161 161 161 170 170 170 177 177 177 181 181 181 182 182 182 179 179 179 174 174 174 168 168 168 162 162 162 156 156 156 151 151 151 148 148 148 151 151 151 252 25 63 174 174 174 190 190 190 203 203 203 213 213 213 221 221 221 227 227 227 230 230 230 230 230 230 227 227 227 222 222 222 252 25 63 209 209 209 207 207 207 252 25 63 252 25 63 252 25 63 252 25 63 252 25 63 252 25 63 252 25 63 
252 25 63 252 25 63 252 25 63 252 25 63 252 25 63 252 25 63 252 25 63 113 113 113 117 117 117 124 124 124 131 131 131 136 136 136 140 140 140 138 138 138 137 137 137 252 25 63 153 153 153 164 164 164 174 174 174 181 181 181 184 184 184 184 184 184 181 181 181 177 177 177 170 170 170 164 164 164 159 159 159 158 158 158 159 159 159 252 25 63 180 180 180 203 203 203 226 226 226 234 234 234 241 241 241 242 242 242 244 244 244 240 240 240 236 236 236 230 230 230 223 223 223 216 216 216 252 25 63 252 25 63 207 207 207 206 206 206 205 205 205 202 202 202 200 200 200 199 199 199 198 198 198 
252 25 63 108 108 108 113 113 113 116 116 116 116 116 116 115 115 115 114 114 114 117 117 117 122 122 122 129 129 129 135 135 135 140 140 140 143 143 143 252 25 63 252 25 63 152 152 152 161 161 161 171 171 171 180 180 180 186 186 186 188 188 188 188 188 188 185 185 185 181 181 181 175 175 175 168 168 168 164 164 164 169 169 169 252 25 63 194 194 194 211 211 211 229 229 229 243 243 243 250 250 250 251 251 251 248 248 248 243 243 243 237 237 237 230 230 230 225 225 225 220 220 220 215 215 215 210 210 210 206 206 206 204 204 204 202 202 202 200 200 200 196 196 196 193 193 193 190 190 190 188 188 188 
252 25 63 109 109 109 117 117 117 119 119 119 121 121 121 116 116 116 113 113 113 116 116 116 124 124 124 130 130 130 136 136 136 142 142 142 252 25 63 150 150 150 155 155 155 161 161 161 170 170 170 178 178 178 186 186 186 191 191 191 193 193 193 190 190 190 187 187 187 181 181 181 179 179 179 173 173 173 172 172 172 252 25 63 200 200 200 217 217 217 237 237 237 246 246 246 252 252 252 254 254 254 251 251 251 246 246 246 236 236 236 229 229 229 220 220 220 218 218 218 215 215 215 211 211 211 207 207 207 204 204 204 202 202 202 199 199 199 196 196 196 193 193 193 188 188 188 183 183 183 178 178 178 
252 25 63 252 25 63 112 112 112 115 115 115 115 115 115 111 111 111 109 109 109 111 111 111 117 117 117 126 126 126 135 135 135 252 25 63 148 148 148 153 153 153 159 159 159 166 166 166 174 174 174 183 183 183 190 190 190 193 193 193 193 193 193 187 187 187 180 180 180 175 175 175 174 174 174 180 180 180 252 25 63 201 201 201 213 213 213 229 229 229 244 244 244 252 252 252 255 255 255 255 255 255 250 250 250 243 243 243 233 233 233 225 225 225 218 218 218 214 214 214 211 211 211 208 208 208 204 204 204 202 202 202 200 200 200 198 198 198 196 196 196 192 192 192 186 186 186 178 178 178 167 167 167 
252 25 63 252 25 63 252 25 63 252 25 63 252 25 63 252 25 63 252 25 63 252 25 63 252 25 63 252 25 63 252 25 63 143 143 143 149 149 149 153 153 153 158 158 158 166 166 166 175 175 175 185 185 185 192 192 192 193 193 193 189 189 189 176 176 176 168 168 168 165 165 165 170 170 170 252 25 63 208 208 208 214 214 214 220 220 220 232 232 232 244 244 244 251 251 251 253 253 253 252 252 252 247 247 247 239 239 239 231 231 231 223 223 223 216 216 216 211 211 211 208 208 208 204 204 204 201 201 201 199 199 199 198 198 198 197 197 197 196 196 196 192 192 192 185 185 185 172 172 172 158 158 158 
252 25 63 252 25 63 252 25 63 104 104 104 100 100 100 252 25 63 252 25 63 111 111 111 120 120 120 130 130 130 139 139 139 145 145 145 149 149 149 152 152 152 156 156 156 163 163 163 173 173 173 184 184 184 191 191 191 187 187 187 175 175 175 159 159 159 150 150 150 159 159 159 252 25 63 198 198 198 213 213 213 219 219 219 223 223 223 232 232 232 240 240 240 246 246 246 248 248 248 246 246 246 242 242 242 235 235 235 227 227 227 220 220 220 214 214 214 209 209 209 204 204 204 201 201 201 198 198 198 196 196 196 195 195 195 194 194 194 193 193 193 188 188 188 180 180 180 166 166 166 151 151 151 
252 25 63 252 25 63 252 25 63 252 25 63 252 25 63 109 109 109 114 114 114 127 127 127 135 135 135 141 141 141 145 145 145 148 148 148 149 149 149 151 151 151 252 25 63 159 159 159 167 167 167 179 179 179 187 187 187 177 177 177 162 162 162 147 147 147 137 137 137 252 25 63 190 190 190 206 206 206 216 216 216 220 220 220 222 222 222 230 230 230 237 237 237 240 240 240 240 240 240 239 239 239 236 236 236 229 229 229 221 221 221 216 216 216 212 212 212 206 206 206 200 200 200 197 197 197 194 194 194 192 192 192 189 189 189 188 188 188 187 187 187 180 180 180 171 171 171 158 158 158 252 25 63 
252 25 63 252 25 63 118 118 118 252 25 63 252 25 63 252 25 63 252 25 63 252 25 63 252 25 63 252 25 63 252 25 63 152 152 152 151 151 151 252 25 63 154 154 154 252 25 63 164 164 164 168 168 168 168 168 168 163 163 163 252 25 63 252 25 63 252 25 63 179 179 179 198 198 198 209 209 209 215 215 215 219 219 219 223 223 223 229 229 229 233 233 233 234 234 234 232 232 232 230 230 230 226 226 226 221 221 221 215 215 215 211 211 211 207 207 207 202 202 202 197 197 197 194 194 194 191 191 191 187 187 187 182 182 182 178 178 178 174 174 174 166 166 166 157 157 157 252 25 63 136 136 136 
252 25 63 114 114 114 252 25 63 252 25 63 252 25 63 252 25 63 185 185 185 179 179 179 170 170 170 162 162 162 252 25 63 252 25 63 252 25 63 152 152 152 155 155 155 158 158 158 252 25 63 252 25 63 153 153 153 252 25 63 157 157 157 169 169 169 186 186 186 196 196 196 207 207 207 210 210 210 211 211 211 215 215 215 220 220 220 223 223 223 226 226 226 223 223 223 220 220 220 217 217 217 214 214 214 210 210 210 206 206 206 202 202 202 199 199 199 194 194 194 190 190 190 187 187 187 185 185 185 179 179 179 172 172 172 166 166 166 158 158 158 150 150 150 252 25 63 135 135 135 128 128 128 
252 25 63 252 25 63 252 25 63 252 25 63 252 25 63 178 178 178 190 190 190 187 187 187 252 25 63 252 25 63 157 157 157 151 151 151 252 25 63 252 25 63 252 25 63 252 25 63 252 25 63 153 153 153 252 25 63 159 159 159 169 169 169 182 182 182 195 195 195 202 202 202 206 206 206 207 207 207 208 208 208 209 209 209 210 210 210 210 210 210 209 209 209 207 207 207 203 203 203 200 200 200 197 197 197 193 193 193 190 190 190 187 187 187 185 185 185 181 181 181 178 178 178 176 176 176 172 172 172 166 166 166 159 159 159 152 152 152 144 144 144 252 25 63 128 128 128 122 122 122 117 117 117 
252 25 63 252 25 63 252 25 63 252 25 63 252 25 63 180 180 180 187 187 187 252 25 63 174 174 174 163 163 163 153 153 153 252 25 63 143 143 143 144 144 144 145 145 145 148 148 148 149 149 149 252 25 63 159 159 159 167 167 167 179 179 179 188 188 188 196 196 196 199 199 199 199 199 199 201 201 201 202 202 202 199 199 199 195 195 195 193 193 193 189 189 189 187 187 187 184 184 184 181 181 181 178 178 178 175 175 175 172 172 172 170 170 170 168 168 168 166 166 166 163 163 163 161 161 161 157 157 157 152 152 152 145 145 145 138 138 138 252 25 63 122 122 122 116 116 116 110 110 110 106 106 106 
252 25 63 252 25 63 252 25 63 252 25 63 167 167 167 252 25 63 252 25 63 175 175 175 165 165 165 155 155 155 252 25 63 143 143 143 140 140 140 139 139 139 141 141 141 145 145 145 149 149 149 155 155 155 163 163 163 171 171 171 179 179 179 185 185 185 189 189 189 190 190 190 190 190 190 189 189 189 187 187 187 184 184 184 180 180 180 176 176 176 172 172 172 169 169 169 166 166 166 163 163 163 160 160 160 157 157 157 156 156 156 154 154 154 153 153 153 151 151 151 148 148 148 145 145 145 142 142 142 137 137 137 131 131 131 252 25 63 118 118 118 111 111 111 105 105 105 100 100 100 96 96 96 
252 25 63 252 25 63 252 25 63 157 157 157 167 167 167 173 173 173 173 173 173 164 164 164 152 152 152 252 25 63 143 143 143 139 139 139 136 136 136 136 136 136 138 138 138 142 142 142 149 149 149 155 155 155 163 163 163 168 168 168 173 173 173 177 177 177 178 178 178 178 178 178 177 177 177 174 174 174 170 170 170 168 168 168 164 164 164 161 161 161 156 156 156 153 153 153 150 150 150 147 147 147 145 145 145 143 143 143 142 142 142 141 141 141 140 140 140 137 137 137 134 134 134 131 131 131 128 128 128 124 124 124 252 25 63 113 113 113 107 107 107 101 101 101 96 96 96 91 91 91 88 88 88 
252 25 63 252 25 63 150 150 150 157 157 157 163 163 163 165 165 165 161 161 161 152 152 152 252 25 63 139 139 139 137 137 137 136 136 136 134 134 134 134 134 134 135 135 135 137 137 137 142 142 142 149 149 149 156 156 156 161 161 161 164 164 164 166 166 166 166 166 166 164 164 164 161 161 161 157 157 157 154 154 154 151 151 151 150 150 150 148 148 148 145 145 145 142 142 142 139 139 139 136 136 136 133 133 133 132 132 132 132 132 132 131 131 131 130 130 130 128 128 128 252 25 63 252 25 63 252 25 63 252 25 63 111 111 111 106 106 106 100 100 100 95 95 95 89 89 89 85 85 85 82 82 82 
252 25 63 146 146 146 151 151 151 155 155 155 157 157 157 156 156 156 151 151 151 252 25 63 136 136 136 134 134 134 133 133 133 133 133 133 133 133 133 132 132 132 133 133 133 134 134 134 135 135 135 142 142 142 148 148 148 153 153 153 155 155 155 156 156 156 154 154 154 151 151 151 146 146 146 142 142 142 138 138 138 137 137 137 137 137 137 136 136 136 135 135 135 133 133 133 130 130 130 128 128 128 126 126 126 125 125 125 125 125 125 125 125 125 124 124 124 252 25 63 252 25 63 252 25 63 252 25 63 110 110 110 106 106 106 102 102 102 97 97 97 91 91 91 85 85 85 81 81 81 78 78 78 
252 25 63 144 144 144 149 149 149 151 151 151 151 151 151 149 149 149 252 25 63 138 138 138 133 133 133 131 131 131 131 131 131 131 131 131 132 132 132 133 133 133 133 133 133 135 135 135 137 137 137 141 141 141 146 146 146 149 149 149 149 149 149 148 148 148 145 145 145 140 140 140 135 135 135 252 25 63 252 25 63 252 25 63 252 25 63 252 25 63 252 25 63 252 25 63 252 25 63 252 25 63 252 25 63 252 25 63 252 25 63 252 25 63 252 25 63 252 25 63 115 115 115 113 113 113 111 111 111 109 109 109 105 105 105 101 101 101 97 97 97 91 91 91 85 85 85 80 80 80 76 76 76 
252 25 63 252 25 63 146 146 146 148 148 148 146 146 146 252 25 63 139 139 139 135 135 135 132 132 132 131 131 131 132 132 132 132 132 132 132 132 132 134 134 134 136 136 136 138 138 138 141 141 141 143 143 143 146 146 146 146 146 146 145 145 145 142 142 142 138 138 138 132 132 132 252 25 63 123 123 123 120 120 120 118 118 118 117 117 117 117 117 117 116 116 116 117 117 117 117 117 117 117 117 117 118 118 118 118 118 118 118 118 118 118 118 118 252 25 63 115 115 115 113 113 113 113 113 113 112 112 112 110 110 110 107 107 107 103 103 103 98 98 98 93 93 93 86 86 86 80 80 80 75 75 75 
252 25 63 252 25 63 252 25 63 145 145 145 252 25 63 141 141 141 137 137 137 135 135 135 134 134 134 133 133 133 134 134 134 134 134 134 135 135 135 137 137 137 139 139 139 142 142 142 144 144 144 145 145 145 146 146 146 145 145 145 142 142 142 137 137 137 132 132 132 252 25 63 120 120 120 117 117 117 114 114 114 252 25 63 252 25 63 252 25 63 252 25 63 252 25 63 252 25 63 252 25 63 252 25 63 252 25 63 252 25 63 252 25 63 115 115 115 114 114 114 114 114 114 113 113 113 113 113 113 112 112 112 109 109 109 106 106 106 101 101 101 95 95 95 88 88 88 81 81 81 31 253 13 
252 25 63 143 143 143 145 145 145 252 25 63 143 143 143 140 140 140 137 137 137 137 137 137 137 137 137 138 138 138 138 138 138 139 139 139 139 139 139 140 140 140 142 142 142 144 144 144 146 146 146 146 146 146 145 145 145 143 143 143 139 139 139 133 133 133 252 25 63 120 120 120 252 25 63 252 25 63 252 25 63 107 107 107 104 104 104 103 103 103 104 104 104 105 105 105 106 106 106 108 108 108 110 110 110 112 112 112 113 113 113 114 114 114 114 114 114 113 113 113 113 113 113 113 113 113 112 112 112 111 111 111 110 110 110 107 107 107 103 103 103 96 96 96 89 89 89 31 253 13 75 75 75 
252 25 63 252 25 63 252 25 63 145 145 145 143 143 143 141 141 141 139 139 139 140 140 140 142 142 142 145 145 145 146 146 146 145 145 145 144 144 144 144 144 144 145 145 145 145 145 145 146 146 146 145 145 145 144 144 144 140 140 140 136 136 136 252 25 63 123 123 123 252 25 63 110 110 110 106 106 106 104 104 104 101 101 101 99 99 99 98 98 98 98 98 98 100 100 100 102 102 102 104 104 104 106 106 106 108 108 108 110 110 110 111 111 111 112 112 112 111 111 111 111 111 111 110 110 110 109 109 109 108 108 108 108 108 108 106 106 106 102 102 102 94 94 94 31 253 13 78 78 78 74 74 74 
252 25 63 148 148 148 252 25 63 252 25 63 144 144 144 142 142 142 142 142 142 143 143 143 146 146 146 148 148 148 152 152 152 149 149 149 146 146 146 145 145 145 145 145 145 144 144 144 144 144 144 143 143 143 141 141 141 137 137 137 252 25 63 126 126 126 252 25 63 112 112 112 106 106 106 102 102 102 98 98 98 31 253 13 31 253 13 31 253 13 31 253 13 96 96 96 98 98 98 100 100 100 103 103 103 105 105 105 107 107 107 107 107 107 108 108 108 107 107 107 107 107 107 105 105 105 104 104 104 103 103 103 102 102 102 101 101 101 99 99 99 31 253 13 78 78 78 73 73 73 70 70 70 
252 25 63 252 25 63 252 25 63 252 25 63 252 25 63 144 144 144 143 143 143 143 143 143 143 143 143 144 144 144 145 145 145 144 144 144 143 143 143 142 142 142 141 141 141 140 140 140 140 140 140 139 139 139 136 136 136 252 25 63 128 128 128 252 25 63 115 115 115 108 108 108 102 102 102 97 97 97 31 253 13 92 92 92 91 91 91 91 91 91 92 92 92 31 253 13 96 96 96 98 98 98 99 99 99 101 101 101 102 102 102 103 103 103 103 103 103 102 102 102 101 101 101 99 99 99 97 97 97 96 96 96 95 95 95 94 94 94 31 253 13 80 80 80 71 71 71 252 25 63 252 25 63 
252 25 63 252 25 63 252 25 63 252 25 63 252 25 63 252 25 63 252 25 63 142 142 142 139 139 139 138 138 138 252 25 63 252 25 63 252 25 63 252 25 63 252 25 63 252 25 63 252 25 63 252 25 63 252 25 63 127 127 127 252 25 63 118 118 118 111 111 111 104 104 104 98 98 98 31 253 13 92 92 92 91 91 91 90 90 90 90 90 90 91 91 91 92 92 92 31 253 13 95 95 95 96 96 96 97 97 97 98 98 98 98 98 98 98 98 98 97 97 97 96 96 96 31 253 13 92 92 92 92 92 92 89 89 89 31 253 13 82 82 82 72 72 72 252 25 63 59 59 59 56 56 56 
252 25 63 252 25 63 146 146 146 252 25 63 148 148 148 148 148 148 147 147 147 252 25 63 139 139 139 252 25 63 131 131 131 252 25 63 252 25 63 252 25 63 252 25 63 252 25 63 252 25 63 252 25 63 252 25 63 252 25 63 118 118 118 113 113 113 107 107 107 101 101 101 31 253 13 92 92 92 90 90 90 90 90 90 90 90 90 90 90 90 90 90 90 91 91 91 92 92 92 31 253 13 31 253 13 95 95 95 96 96 96 96 96 96 95 95 95 95 95 95 31 253 13 96 96 96 31 253 13 94 94 94 31 253 13 83 83 83 75 75 75 252 25 63 59 59 59 56 56 56 53 53 53 
252 25 63 252 25 63 252 25 63 147 147 147 150 150 150 152 152 152 151 151 151 146 146 146 252 25 63 133 133 133 252 25 63 127 127 127 125 125 125 124 124 124 122 122 122 120 120 120 119 119 119 119 119 119 117 117 117 116 116 116 113 113 113 109 109 109 104 104 104 31 253 13 94 94 94 91 91 91 90 90 90 89 89 89 90 90 90 90 90 90 90 90 90 91 91 91 91 91 91 91 91 91 91 91 91 31 253 13 94 94 94 31 253 13 31 253 13 31 253 13 96 96 96 100 100 100 102 102 102 31 253 13 89 89 89 78 78 78 252 25 63 61 61 61 56 56 56 53 53 53 52 52 52 
252 25 63 252 25 63 252 25 63 147 147 147 152 152 152 156 156 156 157 157 157 150 150 150 141 141 141 252 25 63 127 127 127 123 123 123 121 121 121 119 119 119 116 116 116 114 114 114 113 113 113 113 113 113 113 113 113 112 112 112 110 110 110 106 106 106 31 253 13 97 97 97 92 92 92 90 90 90 89 89 89 89 89 89 90 90 90 90 90 90 90 90 90 90 90 90 90 90 90 90 90 90 91 91 91 93 93 93 31 253 13 91 91 91 89 89 89 92 92 92 98 98 98 103 103 103 103 103 103 94 94 94 81 81 81 252 25 63 62 62 62 57 57 57 53 53 53 50 50 50 46 46 46 
252 25 63 252 25 63 252 25 63 252 25 63 153 153 153 159 159 159 162 162 162 152 152 152 252 25 63 131 131 131 124 124 124 121 121 121 119 119 119 115 115 115 112 112 112 109 109 109 108 108 108 108 108 108 108 108 108 108 108 108 107 107 107 31 253 13 100 100 100 95 95 95 91 91 91 89 89 89 89 89 89 89 89 89 90 90 90 91 91 91 91 91 91 90 90 90 89 89 89 89 89 89 90 90 90 92 92 92 93 93 93 87 87 87 83 83 83 89 89 89 98 98 98 102 102 102 101 101 101 87 87 87 252 25 63 62 62 62 56 56 56 53 53 53 50 50 50 45 45 45 40 40 40 
252 25 63 252 25 63 252 25 63 252 25 63 252 25 63 155 155 155 156 156 156 252 25 63 139 139 139 130 130 130 123 123 123 118 118 118 115 115 115 112 112 112 108 108 108 106 106 106 31 253 13 31 253 13 31 253 13 31 253 13 31 253 13 101 101 101 98 98 98 93 93 93 90 90 90 89 89 89 89 89 89 90 90 90 90 90 90 91 91 91 90 90 90 88 88 88 87 87 87 86 86 86 87 87 87 87 87 87 85 85 85 83 83 83 82 82 82 86 86 86 91 91 91 93 93 93 90 90 90 252 25 63 68 68 68 58 58 58 51 51 51 48 48 48 45 45 45 41 41 41 37 37 37 
252 25 63 252 25 63 252 25 63 252 25 63 252 25 63 252 25 63 252 25 63 144 144 144 252 25 63 129 129 129 122 122 122 118 118 118 113 113 113 110 110 110 106 106 106 31 253 13 101 101 101 100 100 100 100 100 100 100 100 100 99 99 99 97 97 97 95 95 95 91 91 91 88 88 88 88 88 88 89 89 89 89 89 89 90 90 90 90 90 90 90 90 90 86 86 86 252 25 63 252 25 63 252 25 63 252 25 63 252 25 63 252 25 63 252 25 63 252 25 63 252 25 63 252 25 63 252 25 63 73 73 73 65 65 65 55 55 55 47 47 47 43 43 43 40 40 40 38 38 38 35 35 35 
252 25 63 252 25 63 252 25 63 252 25 63 252 25 63 252 25 63 252 25 63 252 25 63 252 25 63 252 25 63 125 125 125 119 119 119 114 114 114 109 109 109 31 253 13 101 101 101 99 99 99 97 97 97 95 95 95 94 94 94 92 92 92 91 91 91 90 90 90 88 88 88 87 87 87 87 87 87 87 87 87 87 87 87 87 87 87 87 87 87 85 85 85 252 25 63 80 80 80 78 78 78 77 77 77 74 74 74 72 72 72 72 72 72 73 73 73 75 75 75 75 75 75 74 74 74 70 70 70 65 65 65 57 57 57 49 49 49 43 43 43 40 40 40 38 38 38 35 35 35 33 33 33 
252 25 63 252 25 63 252 25 63 252 25 63 252 25 63 252 25 63 252 25 63 252 25 63 135 135 135 31 253 13 31 253 13 31 253 13 31 253 13 31 253 13 105 105 105 101 101 101 97 97 97 94 94 94 91 91 91 89 89 89 87 87 87 86 86 86 85 85 85 85 85 85 85 85 85 86 86 86 85 85 85 85 85 85 84 84 84 252 25 63 252 25 63 79 79 79 77 77 77 75 75 75 73 73 73 71 71 71 69 69 69 68 68 68 67 67 67 69 69 69 70 70 70 69 69 69 65 65 65 59 59 59 50 50 50 44 44 44 39 39 39 37 37 37 36 36 36 33 33 33 30 30 30 
252 25 63 252 25 63 252 25 63 31 253 13 31 253 13 31 253 13 31 253 13 31 253 13 31 253 13 126 126 126 123 123 123 118 118 118 113 113 113 109 109 109 105 105 105 101 101 101 97 97 97 93 93 93 89 89 89 87 87 87 85 85 85 84 84 84 83 83 83 83 83 83 84 84 84 84 84 84 84 84 84 84 84 84 252 25 63 81 81 81 79 79 79 78 78 78 76 76 76 74 74 74 72 72 72 70 70 70 68 68 68 67 67 67 66 66 66 67 67 67 67 67 67 67 67 67 64 64 64 57 57 57 49 49 49 41 41 41 36 36 36 33 33 33 32 32 32 30 30 30 27 27 27 
252 25 63 252 25 63 31 253 13 252 25 63 127 127 127 126 126 126 125 125 125 124 124 124 122 122 122 120 120 120 117 117 117 114 114 114 110 110 110 107 107 107 252 25 63 252 25 63 252 25 63 93 93 93 89 89 89 86 86 86 84 84 84 83 83 83 83 83 83 252 25 63 252 25 63 252 25 63 252 25 63 252 25 63 81 81 81 80 80 80 78 78 78 77 77 77 76 76 76 74 74 74 73 73 73 71 71 71 69 69 69 67 67 67 66 66 66 66 66 66 67 67 67 67 67 67 66 66 66 60 60 60 51 51 51 43 43 43 34 34 34 31 31 31 29 29 29 26 26 26 24 24 24 
252 25 63 31 253 13 252 25 63 128 128 128 125 125 125 123 123 123 120 120 120 118 118 118 116 116 116 114 114 114 111 111 111 109 109 109 106 106 106 252 25 63 102 102 102 100 100 100 97 97 97 252 25 63 90 90 90 87 87 87 85 85 85 83 83 83 252 25 63 81 81 81 81 81 81 81 81 81 81 81 81 81 81 81 80 80 80 78 78 78 77 77 77 77 77 77 76 76 76 75 75 75 74 74 74 73 73 73 72 72 72 69 69 69 67 67 67 67 67 67 68 68 68 69 69 69 68 68 68 66 66 66 60 60 60 49 49 49 38 38 38 31 31 31 26 26 26 22 22 22 19 19 19 
31 253 13 252 25 63 130 130 130 127 127 127 124 124 124 121 121 121 118 118 118 116 116 116 112 112 112 110 110 110 106 106 106 105 105 105 252 25 63 101 101 101 100 100 100 98 98 98 96 96 96 93 93 93 252 25 63 252 25 63 252 25 63 252 25 63 82 82 82 81 81 81 80 80 80 80 80 80 80 80 80 79 79 79 78 78 78 78 78 78 77 77 77 77 77 77 76 76 76 76 76 76 76 76 76 77 77 77 77 77 77 74 74 74 70 70 70 71 71 71 70 70 70 71 71 71 70 70 70 68 68 68 66 66 66 52 52 52 40 40 40 31 31 31 25 25 25 20 20 20 16 16 16 
252 25 63 133 133 133 130 130 130 127 127 127 125 125 125 122 122 122 120 120 120 116 116 116 113 113 113 108 108 108 104 104 104 252 25 63 100 100 100 98 98 98 97 97 97 95 95 95 94 94 94 92 92 92 90 90 90 87 87 87 85 85 85 83 83 83 82 82 82 81 81 81 80 80 80 80 80 80 80 80 80 79 79 79 78 78 78 78 78 78 77 77 77 77 77 77 77 77 77 78 78 78 79 79 79 81 81 81 83 83 83 82 82 82 81 81 81 78 78 78 76 76 76 73 73 73 69 69 69 62 62 62 54 54 54 44 44 44 36 36 36 31 31 31 27 27 27 20 20 20 14 14 14 
252 25 63 133 133 133 130 130 130 128 128 128 126 126 126 124 124 124 122 122 122 119 119 119 115 115 115 109 109 109 252 25 63 100 100 100 97 97 97 95 95 95 94 94 94 92 92 92 91 91 91 89 89 89 88 88 88 86 86 86 84 84 84 83 83 83 81 81 81 81 81 81 80 80 80 80 80 80 80 80 80 80 80 80 80 80 80 79 79 79 78 78 78 78 78 78 78 78 78 79 79 79 81 81 81 84 84 84 87 87 87 87 87 87 87 87 87 82 82 82 78 78 78 73 73 73 66 66 66 53 53 53 38 38 38 32 32 32 28 28 28 29 29 29 29 29 29 20 20 20 11 11 11 
252 25 63 252 25 63 131 131 131 129 129 129 127 127 127 126 126 126 125 125 125 121 121 121 116 116 116 252 25 63 103 103 103 99 99 99 95 95 95 93 93 93 91 91 91 90 90 90 88 88 88 87 87 87 86 86 86 84 84 84 83 83 83 82 82 82 81 81 81 81 81 81 81 81 81 81 81 81 81 81 81 81 81 81 81 81 81 80 80 80 80 80 80 79 79 79 79 79 79 80 80 80 81 81 81 83 83 83 84 84 84 81 81 81 77 77 77 74 74 74 71 71 71 68 68 68 60 60 60 44 44 44 30 30 30 25 25 25 25 25 25 26 26 26 24 24 24 15 15 15 5 5 5 
252 25 63 252 25 63 252 25 63 130 130 130 128 128 128 127 127 127 126 126 126 252 25 63 252 25 63 109 109 109 103 103 103 98 98 98 94 94 94 91 91 91 89 89 89 87 87 87 86 86 86 85 85 85 84 84 84 83 83 83 82 82 82 82 82 82 82 82 82 81 81 81 81 81 81 82 82 82 83 83 83 83 83 83 83 83 83 82 82 82 81 81 81 79 79 79 79 79 79 78 78 78 78 78 78 79 79 79 77 77 77 69 69 69 61 61 61 59 59 59 59 59 59 57 57 57 53 53 53 37 37 37 23 23 23 21 21 21 23 23 23 22 22 22 18 18 18 10 10 10 0 0 0 
252 25 63 252 25 63 252 25 63 252 25 63 130 130 130 128 128 128 252 25 63 119 119 119 113 113 113 107 107 107 102 102 102 97 97 97 94 94 94 90 90 90 88 88 88 86 86 86 84 84 84 83 83 83 83 83 83 82 82 82 82 82 82 82 82 82 81 81 81 81 81 81 82 82 82 83 83 83 85 85 85 86 86 86 86 86 86 85 85 85 82 82 82 79 79 79 75 75 75 73 73 73 73 73 73 73 73 73 69 69 69 56 56 56 44 44 44 42 42 42 43 43 43 42 42 42 37 37 37 28 28 28 22 22 22 21 21 21 21 21 21 19 19 19 14 14 14 8 8 8 2 2 2 
252 25 63 252 25 63 252 25 63 252 25 63 252 25 63 252 25 63 124 124 124 117 117 117 110 110 110 105 105 105 102 102 102 98 98 98 94 94 94 91 91 91 88 88 88 85 85 85 84 84 84 83 83 83 82 82 82 82 82 82 82 82 82 82 82 82 82 82 82 83 83 83 84 84 84 85 85 85 88 88 88 90 90 90 91 91 91 88 88 88 84 84 84 78 78 78 72 72 72 68 68 68 64 64 64 65 65 65 63 63 63 45 45 45 28 28 28 30 30 30 33 33 33 30 30 30 23 23 23 21 21 21 19 19 19 19 19 19 20 20 20 15 15 15 10 10 10 6 6 6 5 5 5 
