P3
5 2
255
252 25 63 252 25 63 170 170 170 255 255 255 213 213 213 
31 253 13 31 253 13 31 253 13 31 253 13 31 253 13 
